HIERARCHY
ROOT Hips
{
	OFFSET 0.00000 0.00000 0.00000
	CHANNELS 6 Xposition Yposition Zposition Zrotation Yrotation Xrotation 
	JOINT LHipJoint
	{
		OFFSET 0 0 0
		CHANNELS 3 Zrotation Yrotation Xrotation
		JOINT LeftUpLeg
		{
			OFFSET 1.56857 -1.73443 1.15205
			CHANNELS 3 Zrotation Yrotation Xrotation
			JOINT LeftLeg
			{
				OFFSET 2.39362 -6.57643 0.00000
				CHANNELS 3 Zrotation Yrotation Xrotation
				JOINT LeftFoot
				{
					OFFSET 2.50952 -6.89485 0.00000
					CHANNELS 3 Zrotation Yrotation Xrotation
					JOINT LeftToeBase
					{
						OFFSET 0.17171 -0.47178 1.88682
						CHANNELS 3 Zrotation Yrotation Xrotation
						End Site
						{
							OFFSET 0.00000 -0.00000 0.98146
						}
					}
				}
			}
		}
	}
	JOINT RHipJoint
	{
		OFFSET 0 0 0
		CHANNELS 3 Zrotation Yrotation Xrotation
		JOINT RightUpLeg
		{
			OFFSET -1.28153 -1.73443 1.15205
			CHANNELS 3 Zrotation Yrotation Xrotation
			JOINT RightLeg
			{
				OFFSET -2.26861 -6.23296 0.00000
				CHANNELS 3 Zrotation Yrotation Xrotation
				JOINT RightFoot
				{
					OFFSET -2.54143 -6.98254 0.00000
					CHANNELS 3 Zrotation Yrotation Xrotation
					JOINT RightToeBase
					{
						OFFSET -0.23309 -0.64041 1.93119
						CHANNELS 3 Zrotation Yrotation Xrotation
						End Site
						{
							OFFSET -0.00000 -0.00000 1.02013
						}
					}
				}
			}
		}
	}
	JOINT LowerBack
	{
		OFFSET 0 0 0
		CHANNELS 3 Zrotation Yrotation Xrotation
		JOINT Spine
		{
			OFFSET -0.07096 2.10460 -0.27878
			CHANNELS 3 Zrotation Yrotation Xrotation
			JOINT Spine1
			{
				OFFSET -0.00826 2.13662 -0.08279
				CHANNELS 3 Zrotation Yrotation Xrotation
				JOINT Neck
				{
					OFFSET 0 0 0
					CHANNELS 3 Zrotation Yrotation Xrotation
					JOINT Neck1
					{
						OFFSET 0.03239 1.77799 0.24435
						CHANNELS 3 Zrotation Yrotation Xrotation
						JOINT Head
						{
							OFFSET 0.01026 1.74194 -0.49664
							CHANNELS 3 Zrotation Yrotation Xrotation
							End Site
							{
								OFFSET 0.00170 1.83057 -0.19653
							}
						}
					}
				}
				JOINT LeftShoulder
				{
					OFFSET 0 0 0
					CHANNELS 3 Zrotation Yrotation Xrotation
					JOINT LeftArm
					{
						OFFSET 3.19178 1.35907 -0.31412
						CHANNELS 3 Zrotation Yrotation Xrotation
						JOINT LeftForeArm
						{
							OFFSET 4.85247 -0.00000 -0.00000
							CHANNELS 3 Zrotation Yrotation Xrotation
							JOINT LeftHand
							{
								OFFSET 3.55584 -0.00000 0.00000
								CHANNELS 3 Zrotation Yrotation Xrotation
								JOINT LeftFingerBase
								{
									OFFSET 0 0 0
									CHANNELS 3 Zrotation Yrotation Xrotation
									JOINT LeftHandIndex1
									{
										OFFSET 0.69320 -0.00000 0.00000
										CHANNELS 3 Zrotation Yrotation Xrotation
										End Site
										{
											OFFSET 0.55888 -0.00000 0.00000
										}
									}
								}
								JOINT LThumb
								{
									OFFSET 0 0 0
									CHANNELS 3 Zrotation Yrotation Xrotation
									End Site
									{
										OFFSET 0.56741 -0.00000 0.56741
									}
								}
							}
						}
					}
				}
				JOINT RightShoulder
				{
					OFFSET 0 0 0
					CHANNELS 3 Zrotation Yrotation Xrotation
					JOINT RightArm
					{
						OFFSET -3.28999 1.24191 -0.26899
						CHANNELS 3 Zrotation Yrotation Xrotation
						JOINT RightForeArm
						{
							OFFSET -4.64462 -0.00000 0.00000
							CHANNELS 3 Zrotation Yrotation Xrotation
							JOINT RightHand
							{
								OFFSET -3.40703 -0.00000 0.00000
								CHANNELS 3 Zrotation Yrotation Xrotation
								JOINT RightFingerBase
								{
									OFFSET 0 0 0
									CHANNELS 3 Zrotation Yrotation Xrotation
									JOINT RightHandIndex1
									{
										OFFSET -0.61958 -0.00000 0.00000
										CHANNELS 3 Zrotation Yrotation Xrotation
										End Site
										{
											OFFSET -0.49952 -0.00000 0.00000
										}
									}
								}
								JOINT RThumb
								{
									OFFSET 0 0 0
									CHANNELS 3 Zrotation Yrotation Xrotation
									End Site
									{
										OFFSET -0.50715 -0.00000 0.50715
									}
								}
							}
						}
					}
				}
			}
		}
	}
}
MOTION
Frames: 10
Frame Time: .0083333
-30.6222 17.0165 1.629 0 0 0 0 0 0 -21 0 0 0 0 0 0 0 0 0 0 0 0 0 0 21 0 0 0 0 0 0 0 0 0 0 0 0 0 0 0 0 0 0 0 0 0 0 -16 0 0 21 0 0 11 0 0 0 -8 0 0 0 0 0 0 0 0 0 0 0 0 0 0 0 0 0 0 0 0 8 0 0 0 0 0 0 0 0 0 0 0 0 0 0 0 0 0
-30.6222 17.0165 1.6290 77.7277 84.0080 76.8203 0.0000 0.0000 0.0000 -23.0132 2.1326 10.8874 0.0001 -0.0629 -0.1728 0.3591 8.0812 -17.0392 0.7821 -5.6461 -15.7609 0.0000 0.0000 0.0000 6.4759 -6.8802 7.6967 -0.0084 -0.5933 1.6303 -0.7005 4.6522 -14.9240 -0.1801 -2.7332 7.5368 -8.5721 1.0198 3.4158 -2.1654 1.0896 0.7590 2.5108 0.5961 -1.2454 -0.5361 -5.2251 -19.7411 3.6781 -8.0877 26.1778 0.1906 -3.0459 12.0836 -0.0000 -0.0000 0.0000 -71.7941 -19.3139 38.7581 14.7432 -23.7872 -3.1216 -0.0000 -0.0000 11.4129 4.2876 -25.1813 -1.8271 -7.1250 0.0000 -0.0000 -15.3434 5.4774 14.3448 -0.0000 -0.0000 0.0000 75.9896 18.7829 43.5602 -18.2741 28.5067 -4.6793 0.0000 0.0000 3.3617 -7.8834 -27.9787 3.7167 7.1250 -0.0000 -0.0000 24.5013 -56.4523 -7.1804
-30.6188 17.0153 1.6279 75.3398 83.9399 74.5040 0.0000 0.0000 0.0000 -23.0570 2.1528 10.8778 0.0002 -0.0927 -0.2546 0.3641 8.2140 -17.2312 0.7632 -5.5789 -15.5672 0.0000 0.0000 0.0000 6.4516 -6.8205 7.5609 -0.0089 -0.6084 1.6719 -0.6880 4.8633 -14.7799 -0.1780 -2.7173 7.4927 -8.4254 1.1029 3.1345 -2.1945 1.2337 0.7374 2.3975 0.6631 -1.1219 -0.4644 -4.9279 -19.7615 3.6987 -7.6929 26.2932 0.2505 -2.8538 12.1213 -0.0000 0.0000 0.0000 -71.1070 -20.2382 38.9666 14.9938 -24.1374 -3.2234 -0.0000 -0.0000 11.2988 4.4041 -24.8900 -1.8566 -7.1250 0.0000 -0.0000 -15.2753 5.7488 14.1943 -0.0000 0.0000 0.0000 75.5704 19.5100 43.3911 -18.4508 28.7305 -4.7639 0.0000 0.0000 3.2278 -7.5869 -28.5013 3.6367 7.1250 -0.0000 -0.0000 25.1691 -56.8625 -7.6491
-30.6361 17.0144 1.6376 76.7787 84.3428 76.0037 0.0000 0.0000 0.0000 -22.5489 2.0264 10.6783 0.0000 -0.0280 -0.0769 0.3779 7.9772 -17.1678 0.7108 -5.3883 -15.0196 0.0000 0.0000 0.0000 7.0489 -6.5993 7.5767 -0.0086 -0.6001 1.6490 -0.7053 4.4810 -14.9840 -0.1670 -2.6330 7.2587 -8.0714 1.0222 3.1896 -2.0614 1.1241 0.6818 2.3423 0.6091 -1.1959 -0.6070 -4.6192 -19.8569 3.9060 -7.2681 26.4107 0.4191 -2.6439 12.1926 -0.0000 -0.0000 0.0000 -70.4284 -21.1801 39.2296 15.2632 -24.5115 -3.3344 -0.0000 -0.0000 11.2420 4.5181 -24.6022 -1.8842 -7.1250 0.0000 -0.0000 -15.2086 6.0171 14.0467 -0.0000 -0.0000 0.0000 75.1091 20.3352 43.2488 -18.5800 28.8934 -4.8262 0.0000 0.0000 3.0279 -7.3946 -28.6311 3.5585 7.1250 -0.0000 -0.0000 25.4544 -56.9393 -7.7920
-30.6259 17.0176 1.6345 71.5170 84.4406 70.7831 0.0000 0.0000 0.0000 -22.2916 2.1338 10.8157 0.0003 -0.1096 -0.3012 0.3660 8.2988 -17.3389 0.7078 -5.3771 -14.9873 0.0000 0.0000 0.0000 7.3576 -6.3414 7.4212 -0.0106 -0.6634 1.8229 -0.6969 4.7421 -14.8813 -0.1751 -2.6959 7.4331 -7.7245 1.1641 2.8880 -1.9843 1.3516 0.6881 2.2252 0.7142 -1.0374 -0.6044 -4.3974 -20.0707 3.8788 -6.9522 26.5630 0.4561 -2.4981 12.2858 -0.0000 0.0000 0.0000 -69.6835 -22.0892 39.5728 15.6247 -25.0091 -3.4858 -0.0000 -0.0000 10.7451 3.9924 -24.3797 -1.6502 -7.1250 0.0000 -0.0000 -15.5259 6.2736 14.2840 -0.0000 0.0000 0.0000 74.6441 21.1682 43.0554 -18.6968 29.0402 -4.8828 0.0000 0.0000 2.6987 -7.1592 -28.5115 3.4311 7.1250 -0.0000 -0.0000 25.5994 -56.7837 -7.7421
-30.6539 17.0163 1.6507 74.3373 84.4951 73.6814 0.0000 0.0000 0.0000 -22.0434 2.4392 10.2465 0.0000 0.0287 0.0790 0.3767 7.7108 -16.8966 0.7897 -5.6727 -15.8376 0.0000 0.0000 0.0000 7.5705 -5.9899 7.4176 -0.0102 -0.6523 1.7925 -0.7227 4.1618 -15.1926 -0.1866 -2.7821 7.6728 -7.8614 1.1196 3.1320 -1.9716 1.2579 0.5981 2.3124 0.6775 -1.2618 -0.4061 -4.1461 -20.2508 3.7197 -6.6170 26.6289 0.4153 -2.3462 12.3245 0.0000 -0.0000 0.0000 -69.0025 -23.1435 39.4842 15.8054 -25.2561 -3.5625 -0.0000 -0.0000 10.7128 3.3562 -24.7953 -1.4088 -7.1250 0.0000 -0.0000 -15.9019 5.9227 14.7704 0.0000 -0.0000 0.0000 74.2715 22.0612 42.7041 -18.7660 29.1269 -4.9164 0.0000 0.0000 2.3659 -6.9443 -28.4367 3.3194 7.1250 -0.0000 -0.0000 25.7565 -56.6727 -7.7235
-30.6540 17.0205 1.6529 73.2656 84.4450 72.5555 0.0000 0.0000 0.0000 -22.1620 2.1980 10.5056 0.0000 -0.0333 -0.0915 0.3571 8.0755 -17.0093 0.7745 -5.6190 -15.6830 0.0000 0.0000 0.0000 7.5884 -5.9036 7.4522 -0.0104 -0.6576 1.8072 -0.7191 4.0433 -15.1635 -0.1310 -2.3333 6.4278 -7.8004 1.1636 3.0987 -1.9826 1.3225 0.6109 2.2650 0.7082 -1.2346 -0.0634 -3.8063 -20.3920 3.4906 -6.1814 26.6699 0.3418 -2.1460 12.3367 0.0000 -0.0000 0.0000 -68.1970 -23.9849 39.7302 16.1378 -25.7071 -3.7055 -0.0000 -0.0000 10.5693 3.1125 -25.1987 -1.3262 -7.1250 0.0000 -0.0000 -16.0420 5.5537 15.0293 0.0000 -0.0000 0.0000 73.8665 22.9462 42.4082 -18.8633 29.2485 -4.9639 0.0000 0.0000 2.0368 -6.5896 -28.5728 3.1624 7.1250 -0.0000 -0.0000 26.2058 -56.7216 -7.9033
-30.6564 17.0253 1.6563 73.2020 84.5345 72.4861 0.0000 0.0000 0.0000 -22.0602 2.1166 10.5436 0.0000 -0.0434 -0.1191 0.3598 8.0905 -17.0563 0.7837 -5.6516 -15.7768 0.0000 0.0000 0.0000 7.7659 -5.8618 7.4487 -0.0102 -0.6520 1.7916 -0.7194 3.8422 -15.1846 -0.0942 -1.9796 5.4494 -7.6904 1.1432 3.0509 -1.9337 1.3023 0.6083 2.2563 0.6962 -1.2074 0.6549 -3.3606 -20.8054 2.8903 -5.6285 26.9813 0.0799 -1.8935 12.4862 -0.0000 -0.0000 0.0000 -67.4797 -24.7404 39.6603 16.5175 -26.2173 -3.8718 -0.0000 -0.0000 10.5557 2.6884 -25.3479 -1.1516 -7.1250 0.0000 -0.0000 -16.2913 5.4424 15.3197 -0.0000 -0.0000 0.0000 73.3981 23.8096 42.1148 -19.0177 29.4407 -5.0395 0.0000 0.0000 1.6787 -6.0677 -28.6923 2.9215 7.1250 -0.0000 -0.0000 26.8074 -56.7209 -8.1028
-30.6467 17.0324 1.6513 69.4315 84.4606 68.7124 0.0000 0.0000 0.0000 -21.9743 2.4225 10.5678 0.0002 -0.0834 -0.2292 0.3620 8.1669 -17.1597 0.8255 -5.7969 -16.1961 0.0000 0.0000 0.0000 7.7874 -5.8135 7.2976 -0.0119 -0.7040 1.9347 -0.7126 4.1648 -15.0831 -0.1279 -2.3051 6.3497 -7.4992 1.2655 2.8129 -1.9543 1.4959 0.6461 2.1260 0.7858 -1.0480 1.2443 -3.0111 -21.1198 2.4476 -5.2143 27.2439 -0.1229 -1.6971 12.6165 -0.0000 0.0000 0.0000 -66.7937 -25.6388 39.4089 16.8187 -26.6182 -4.0058 -0.0000 -0.0000 10.5578 2.2743 -25.3399 -0.9738 -7.1250 0.0000 -0.0000 -16.5361 5.4802 15.5588 -0.0000 0.0000 0.0000 73.0177 24.7205 41.7139 -19.1089 29.5538 -5.0845 0.0000 0.0000 1.5865 -5.9582 -28.8069 2.8790 7.1250 -0.0000 -0.0000 27.0008 -56.7997 -8.2201
-30.6864 17.0347 1.6685 76.0442 84.5851 75.3263 0.0000 0.0000 0.0000 -21.8148 2.5281 9.9910 0.0003 0.1158 0.3181 0.3737 7.4952 -16.6541 0.9344 -6.1574 -17.2418 0.0000 0.0000 0.0000 7.9262 -5.6887 7.3724 -0.0114 -0.6883 1.8914 -0.7490 3.3736 -15.5570 -0.1164 -2.1993 6.0568 -7.7004 1.1052 3.3450 -1.9627 1.2183 0.5430 2.2293 0.6635 -1.4317 1.6610 -2.7383 -21.3976 2.1655 -4.8986 27.4959 -0.2518 -1.5409 12.7518 -0.0000 -0.0000 0.0000 -66.0402 -26.6407 39.2856 17.0631 -26.9408 -4.1159 -0.0000 -0.0000 10.2356 1.9712 -25.1555 -0.8382 -7.1250 0.0000 -0.0000 -16.7184 5.6783 15.6808 -0.0000 -0.0000 0.0000 72.6617 25.6042 41.4176 -19.1923 29.6569 -5.1257 0.0000 0.0000 1.6214 -6.2031 -29.0530 3.0213 7.1250 -0.0000 -0.0000 26.9468 -57.0679 -8.3807
